<?xml version="1.0" encoding="UTF-8"?>
<svg width="352px" height="352px" viewBox="0 0 352 352" version="1.1" xmlns="http://www.w3.org/2000/svg" xmlns:xlink="http://www.w3.org/1999/xlink">
    <!-- Generator: Sketch 45.2 (43514) - http://www.bohemiancoding.com/sketch -->
    <title>favicon</title>
    <desc>Created with Sketch.</desc>
    <defs>
        <linearGradient x1="0%" y1="0%" x2="101.999998%" y2="100.999999%" id="linearGradient-1">
            <stop stop-color="#3023AE" offset="0%"></stop>
            <stop stop-color="#C86DD7" offset="100%"></stop>
        </linearGradient>
    </defs>
    <g id="index" stroke="none" stroke-width="1" fill="none" fill-rule="evenodd">
        <g id="Tablet" transform="translate(-218.000000, -608.000000)">
            <g id="favicon" transform="translate(218.000000, 608.000000)">
                <rect id="Rectangle-22" fill="url(#linearGradient-1)" x="0" y="0" width="351.422859" height="351.422859" rx="50"></rect>
                <g id="logo" transform="translate(49.199200, 77.313029)" stroke="#FFFFFF" stroke-width="5">
                    <path d="M98.0261762,124.845175 C98.0261762,124.845175 67.1022289,136.886358 42.1988732,124.845175 C17.2955174,112.803992 34.4815695,81.8800444 34.4815695,81.8800444 C34.4815695,81.8800444 43.950318,58.6734008 77.4466998,67.2664269 C77.4466998,67.2664269 123.805254,-9.57821375 172.790976,65.3507841 C172.790976,65.3507841 216.577096,44.0597833 226.045845,91.2940602 C235.514593,138.528337 159.053081,130.154242 159.053081,130.154242" id="XMLID_306_"></path>
                    <path d="M110.614686,199.391044 L250.894468,199.391044 C155.823855,160.257199 12.6979748,196.709144 12.6979748,196.709144 C31.5807391,169.233354 129.442717,162.33704 129.442717,162.33704 L130.044776,113.077655 L101.529066,81.6611138" id="XMLID_305_"></path>
                    <path d="M4.10494875,102.24059 C-8.48356075,83.357826 15.5440726,68.4705452 15.5440726,68.4705452 C12.0959157,36.9992714 48.164732,45.5922975 48.164732,45.5922975 C62.0120925,11.1654606 93.9759601,33.5511145 93.9759601,33.5511145" id="XMLID_303_"></path>
                    <path d="M177.060123,37.5465979 C174.214025,6.07532415 143.290078,11.7675198 143.290078,11.7675198 C122.108542,-14.5588849 96.329464,11.7675198 96.329464,11.7675198" id="XMLID_302_"></path>
                    <path d="M157.684765,83.7956872 L130.3008,111.186971" id="XMLID_301_"></path>
                </g>
            </g>
        </g>
    </g>
</svg>